<svg width="40" height="29" viewBox="0 0 40 29" fill="none" xmlns="http://www.w3.org/2000/svg">
<rect y="0.218811" width="39.5742" height="27.5135" rx="2" fill="#EBEBEB"/>
<path d="M14.322 27.9937C30.7547 26.4861 37.6268 18.0687 39.0088 14.0485C39.2852 13.3701 39.5009 12.3211 39.5741 11.8813V25.2612C39.5741 27.9749 37.3128 28.2136 36.1821 27.9937H14.322Z" fill="#F26E21"/>
<g clip-path="url(#clip0)">
<path d="M20.6301 14.6409C21.9045 14.6409 22.9377 13.6078 22.9377 12.3333C22.9377 11.0589 21.9045 10.0258 20.6301 10.0258C19.3557 10.0258 18.3225 11.0589 18.3225 12.3333C18.3225 13.6078 19.3557 14.6409 20.6301 14.6409Z" fill="#EF9122"/>
<path d="M18.3225 12.3333C18.3225 11.0464 19.3432 10.0258 20.6301 10.0258C21.917 10.0258 22.9377 11.0464 22.9377 12.3333C22.9377 13.6203 21.917 14.6409 20.6301 14.6409" fill="#F26E21"/>
<path d="M19.0327 10.6914C19.9202 9.80387 21.3847 9.80387 22.2722 10.6914C23.1597 11.5789 23.1597 13.0434 22.2722 13.9309" fill="#F44500"/>
<path d="M7.27282 10.1589H6.03027V14.5078H7.27282C7.93847 14.5078 8.42661 14.3303 8.826 14.0196C9.31414 13.6203 9.62478 12.999 9.62478 12.3333C9.62478 11.0464 8.69287 10.1589 7.27282 10.1589ZM8.29348 13.4427C8.02722 13.6646 7.67221 13.7978 7.13969 13.7978H6.87343V10.9133H7.09531C7.62783 10.9133 7.98285 11.002 8.2491 11.2683C8.55974 11.5346 8.73725 11.9339 8.73725 12.3333C8.78162 12.7327 8.60412 13.1765 8.29348 13.4427Z" fill="#595A5B"/>
<path d="M10.8673 10.1589H10.0242V14.5078H10.8673V10.1589Z" fill="#595A5B"/>
<path d="M12.9975 11.8452C12.465 11.6677 12.3318 11.5346 12.3318 11.3127C12.3318 11.0464 12.5981 10.8245 12.9531 10.8245C13.2194 10.8245 13.4412 10.9133 13.6631 11.1795L14.1069 10.6026C13.7519 10.292 13.3081 10.1145 12.82 10.1145C12.0656 10.1145 11.4443 10.647 11.4443 11.357C11.4443 11.9783 11.7106 12.2446 12.5093 12.5552C12.8643 12.6883 12.9975 12.7327 13.0862 12.8215C13.2637 12.9102 13.3525 13.0877 13.3525 13.2652C13.3525 13.6203 13.0862 13.8865 12.6868 13.8865C12.2875 13.8865 11.9324 13.6646 11.7549 13.3096L11.2224 13.8421C11.6218 14.419 12.1099 14.6853 12.7312 14.6853C13.6187 14.6853 14.24 14.1084 14.24 13.2652C14.24 12.5108 13.9738 12.2002 12.9975 11.8452Z" fill="#595A5B"/>
<path d="M14.5063 12.3333C14.5063 13.6203 15.527 14.5966 16.8139 14.5966C17.1689 14.5966 17.4796 14.5078 17.879 14.3303V13.3096C17.524 13.6646 17.2133 13.7978 16.8583 13.7978C16.0152 13.7978 15.3939 13.1765 15.3939 12.289C15.3939 11.4458 16.0152 10.7802 16.8139 10.7802C17.2133 10.7802 17.524 10.9133 17.879 11.2683V10.2476C17.524 10.0701 17.2133 9.98138 16.8139 9.98138C15.5714 10.0701 14.5063 11.0908 14.5063 12.3333Z" fill="#3B3D3F"/>
<path d="M24.846 13.0877L23.6922 10.1589H22.7603L24.5797 14.6409H25.0678L26.976 10.1589H26.0441L24.846 13.0877Z" fill="black"/>
<path d="M27.3311 14.5078H29.7718V13.7978H28.2186V12.5996H29.7274V11.8452H28.2186V10.9133H29.7718V10.1589H27.3311V14.5078Z" fill="black"/>
<path d="M32.1681 12.6883C32.8337 12.5552 33.1887 12.1114 33.1887 11.4458C33.1887 10.647 32.6118 10.1589 31.6356 10.1589H30.3486V14.5078H31.1918V12.7771H31.3249L32.5231 14.5078H33.5438L32.1681 12.6883ZM31.458 12.1558H31.1918V10.8245H31.458C31.9906 10.8245 32.3012 11.0464 32.3012 11.4902C32.3012 11.9339 31.9906 12.1558 31.458 12.1558Z" fill="#595A5B"/>
<path d="M7.27282 10.1589H6.03027V14.5078H7.27282C7.93847 14.5078 8.42661 14.3303 8.826 14.0196C9.31414 13.6203 9.62478 12.999 9.62478 12.3333C9.62478 11.0464 8.69287 10.1589 7.27282 10.1589ZM8.29348 13.4427C8.02722 13.6646 7.67221 13.7978 7.13969 13.7978H6.87343V10.9133H7.09531C7.62783 10.9133 7.98285 11.002 8.2491 11.2683C8.55974 11.5346 8.73725 11.9339 8.73725 12.3333C8.78162 12.7327 8.60412 13.1765 8.29348 13.4427Z" fill="#595A5B"/>
<path d="M10.8673 10.1589H10.0242V14.5078H10.8673V10.1589Z" fill="#595A5B"/>
<path d="M12.9975 11.8452C12.465 11.6677 12.3318 11.5346 12.3318 11.3127C12.3318 11.0464 12.5981 10.8245 12.9531 10.8245C13.2194 10.8245 13.4412 10.9133 13.6631 11.1795L14.1069 10.6026C13.7519 10.292 13.3081 10.1145 12.82 10.1145C12.0656 10.1145 11.4443 10.647 11.4443 11.357C11.4443 11.9783 11.7106 12.2446 12.5093 12.5552C12.8643 12.6883 12.9975 12.7327 13.0862 12.8215C13.2637 12.9102 13.3525 13.0877 13.3525 13.2652C13.3525 13.6203 13.0862 13.8865 12.6868 13.8865C12.2875 13.8865 11.9324 13.6646 11.7549 13.3096L11.2224 13.8421C11.6218 14.419 12.1099 14.6853 12.7312 14.6853C13.6187 14.6853 14.24 14.1084 14.24 13.2652C14.24 12.5108 13.9738 12.2002 12.9975 11.8452Z" fill="#595A5B"/>
<path d="M16.8583 14.5965C17.2133 14.5965 17.5239 14.5077 17.9233 14.3302V13.3096C17.5683 13.6646 17.2577 13.7977 16.9027 13.7977C16.0595 13.7977 15.4382 13.1764 15.4382 12.2889C15.4382 11.8451 15.6157 11.4901 15.882 11.1795L15.3051 10.6026C14.8613 11.002 14.5507 11.6233 14.5507 12.2889C14.5063 13.6202 15.527 14.5965 16.8583 14.5965Z" fill="#595A5B"/>
<path d="M32.1681 12.6883C32.8337 12.5552 33.1887 12.1114 33.1887 11.4458C33.1887 10.647 32.6118 10.1589 31.6356 10.1589H30.3486V14.5078H31.1918V12.7771H31.3249L32.5231 14.5078H33.5438L32.1681 12.6883ZM31.458 12.1558H31.1918V10.8245H31.458C31.9906 10.8245 32.3012 11.0464 32.3012 11.4902C32.3012 11.9339 31.9906 12.1558 31.458 12.1558Z" fill="black"/>
<path d="M12.2874 18.5461V16.1053L13.9737 17.836V16.2385H14.3287V18.6792L12.6424 16.9485V18.5461H12.2874Z" fill="#F26E21"/>
<path d="M16.1036 16.5935H15.1717V17.126H16.0592V17.481H15.1717V18.2354H16.1036V18.5461H14.8167V16.2385H16.1036V16.5935Z" fill="#F26E21"/>
<path d="M17.2132 16.5935V18.546H16.8582V16.5935H16.3257V16.2828H17.7457V16.5935H17.2132Z" fill="#F26E21"/>
<path d="M18.2781 16.2828L18.855 17.836L19.4763 16.1941L20.0532 17.836L20.6744 16.2828H21.1182L20.0976 18.7236L19.5207 17.0816L18.8994 18.7236L17.9231 16.2828H18.2781Z" fill="#F26E21"/>
<path d="M21.1628 17.3923C21.1628 17.0816 21.296 16.771 21.5179 16.5491C21.7397 16.3272 22.0504 16.1941 22.361 16.1941C22.6716 16.1941 22.9823 16.3272 23.2042 16.5491C23.4261 16.771 23.5592 17.0816 23.5592 17.3923C23.5592 17.7029 23.4261 18.0135 23.2042 18.2354C22.9823 18.4573 22.6716 18.5904 22.361 18.5904C22.0504 18.5904 21.7841 18.5017 21.5622 18.2798C21.296 18.0579 21.1628 17.7916 21.1628 17.3923ZM21.5179 17.3923C21.5179 17.6585 21.6066 17.836 21.7841 18.0135C21.9616 18.191 22.1391 18.2798 22.361 18.2798C22.5829 18.2798 22.8048 18.191 22.9823 18.0135C23.1598 17.836 23.2485 17.6585 23.2485 17.3923C23.2485 17.126 23.1598 16.9485 22.9823 16.771C22.8048 16.5935 22.6273 16.5047 22.361 16.5047C22.1391 16.5047 21.9172 16.5935 21.7397 16.771C21.6066 16.9485 21.5179 17.1704 21.5179 17.3923Z" fill="#F26E21"/>
<path d="M24.8017 17.5698L25.5117 18.5461H25.068L24.4023 17.6141H24.3579V18.5461H24.0029V16.2385H24.4023C24.713 16.2385 24.9348 16.2828 25.068 16.416C25.2011 16.5491 25.2899 16.7266 25.2899 16.9041C25.2899 17.0816 25.2455 17.2148 25.1567 17.3035C25.068 17.481 24.9348 17.5698 24.8017 17.5698ZM24.3579 17.3035H24.4467C24.7573 17.3035 24.9348 17.1704 24.9348 16.9485C24.9348 16.7266 24.7573 16.5935 24.4467 16.5935H24.3136V17.3035H24.3579Z" fill="#F26E21"/>
<path d="M26.1772 17.1704L27.0648 16.2385H27.5085L26.4879 17.2591L27.5085 18.5017H27.0648L26.2216 17.481L26.1328 17.5698V18.5017H25.7778V16.1941H26.1328V17.1704H26.1772Z" fill="#F26E21"/>
<path d="M29.0174 13.7978H28.2186V12.999L27.3311 12.1115V14.5078H29.7274L29.0174 13.7978Z" fill="#3B3D3F"/>
<path d="M25.8222 10.6026L24.846 13.0877L23.6922 10.1589H22.7603L24.5797 14.6409H25.0678L26.4879 11.2683L25.8222 10.6026Z" fill="#3B3D3F"/>
</g>
<defs>
<clipPath id="clip0">
<rect width="27.5135" height="27.5135" fill="white" transform="translate(6.03027 0.595703)"/>
</clipPath>
</defs>
</svg>
