<svg width="40" height="28" viewBox="0 0 40 28" fill="none" xmlns="http://www.w3.org/2000/svg">
<path d="M39.6919 25.0937C39.6919 26.3857 38.6446 27.4331 37.3526 27.4331H2.45696C1.165 27.4332 0.117676 26.3857 0.117676 25.0937V2.48042C0.117676 1.18838 1.165 0.141052 2.45696 0.141052H37.3526C38.6447 0.141052 39.6919 1.18846 39.6919 2.48042V25.0937Z" fill="white"/>
<path d="M8.90112 13.9444L7.9719 9.48682C7.81306 8.87211 7.35084 8.68923 6.77331 8.66504H2.51305L2.4751 8.86871C5.79323 9.6731 7.98875 11.6136 8.90112 13.9444Z" fill="#F79F1A"/>
<path d="M18.7728 8.7547H16.0202L14.301 18.8436H17.0491L18.7728 8.7547Z" fill="#059BBF"/>
<path d="M10.5791 18.8335L14.9083 8.7616H11.9951L9.30193 15.6429L9.01448 14.6039C8.48657 13.354 6.9778 11.555 5.20654 10.4225L7.66834 18.8369L10.5791 18.8335Z" fill="#059BBF"/>
<path d="M26.624 15.5455C26.6342 14.4001 25.8988 13.5265 24.314 12.8049C23.3508 12.3388 22.7638 12.028 22.7708 11.555C22.7708 11.1372 23.2679 10.6883 24.3451 10.6883C25.2464 10.6745 25.8954 10.8713 26.403 11.075L26.6517 11.189L27.0247 9.00342C26.4791 8.7996 25.6262 8.58209 24.5594 8.58209C21.842 8.58209 19.9293 9.94949 19.9119 11.9107C19.8946 13.3609 21.2794 14.1689 22.322 14.6522C23.3923 15.1448 23.7514 15.4601 23.7445 15.9021C23.7377 16.5779 22.8916 16.886 22.101 16.886C20.9995 16.886 20.416 16.7341 19.5109 16.3571L19.1593 16.1956L18.7729 18.4563C19.4147 18.7368 20.6023 18.982 21.8352 18.9922C24.7249 18.9922 26.6033 17.6422 26.624 15.5455Z" fill="#059BBF"/>
<path d="M29.8937 17.3314C30.2079 17.3314 33.015 17.3349 33.4157 17.3349C33.4985 17.6862 33.7506 18.8471 33.7506 18.8471H36.3021L34.075 8.76514H31.9516C31.2921 8.76514 30.802 8.94469 30.5118 9.6006L26.4272 18.8471H29.3174C29.3172 18.8471 29.7866 17.6043 29.8937 17.3314ZM31.7788 12.4457C31.7652 12.4733 32.0068 11.8622 32.1449 11.4824L32.3313 12.3524C32.3313 12.3524 32.8563 14.7626 32.9667 15.2667H30.6843C30.9123 14.6867 31.7788 12.4457 31.7788 12.4457Z" fill="#059BBF"/>
<path d="M37.3526 0.141052H2.45696C1.165 0.141052 0.117676 1.18838 0.117676 2.48041V4.90835H39.6919V2.48041C39.6919 1.18838 38.6447 0.141052 37.3526 0.141052Z" fill="#059BBF"/>
<path d="M37.3526 27.4332H2.45696C1.165 27.4332 0.117676 26.3858 0.117676 25.0938V22.6659H39.6919V25.0938C39.6919 26.3858 38.6447 27.4332 37.3526 27.4332Z" fill="#F79F1A"/>
<path opacity="0.15" d="M1.7808 25.0937V2.48042C1.7808 1.18838 2.8282 0.141052 4.12024 0.141052H2.45688C1.165 0.141052 0.117676 1.18838 0.117676 2.48042V25.0938C0.117676 26.3858 1.165 27.4332 2.45696 27.4332H4.12032C2.82828 27.4332 1.7808 26.3857 1.7808 25.0937Z" fill="#202121"/>
</svg>
