<svg width="40" height="29" viewBox="0 0 40 29" fill="none" xmlns="http://www.w3.org/2000/svg">
<rect y="0.881348" width="39.5742" height="27.5135" rx="2" fill="#2488FF"/>
<path d="M22.3037 14.7323C22.3037 16.9074 21.2801 18.8467 19.6907 20.098C20.8872 21.0382 22.3705 21.5602 23.9103 21.5602C27.6752 21.5602 30.7382 18.4972 30.7382 14.7323C30.7382 10.9674 27.6752 7.90436 23.9103 7.90436C22.3705 7.90436 20.8872 8.42641 19.693 9.36465C21.2801 10.6178 22.3037 12.5572 22.3037 14.7323Z" fill="#FFCD00"/>
<path d="M22.3036 14.7323C22.3036 12.5572 21.2799 10.6178 19.6906 9.36658C18.5289 8.45204 17.0654 7.90436 15.4756 7.90436C11.7107 7.90436 8.64771 10.9674 8.64771 14.7323C8.64771 18.4972 11.7107 21.5602 15.4756 21.5602C17.0654 21.5602 18.5289 21.0125 19.6906 20.098C21.28 18.8467 22.3036 16.9074 22.3036 14.7323Z" fill="#FF5023"/>
</svg>
