<svg width="40" height="28" viewBox="0 0 40 28" fill="none" xmlns="http://www.w3.org/2000/svg">
<path d="M39.5742 25.2822C39.5742 26.5742 38.5269 27.6216 37.2349 27.6216H2.33929C1.04733 27.6217 0 26.5742 0 25.2822V2.66889C0 1.37693 1.04733 0.329529 2.33929 0.329529H37.2349C38.527 0.329529 39.5742 1.37693 39.5742 2.66889V25.2822Z" fill="#306FC5"/>
<path d="M5.76538 11.2509H6.94781L6.35675 9.74597L5.76538 11.2509Z" fill="white"/>
<path d="M12.0535 16.3027V17.0015H14.0421V17.7541H12.0535V18.5605H14.257L15.2781 17.4315L14.3108 16.3027H12.0535Z" fill="white"/>
<path d="M27.5857 9.74597L26.9407 11.2509H28.177L27.5857 9.74597Z" fill="white"/>
<path d="M17.8042 18.99V15.9266L16.4067 17.4316L17.8042 18.99Z" fill="white"/>
<path d="M20.4378 16.7866C20.384 16.4641 20.1688 16.3027 19.8462 16.3027H18.7178V17.2701H19.9003C20.2227 17.2702 20.4378 17.109 20.4378 16.7866Z" fill="white"/>
<path d="M24.1999 17.1629C24.3074 17.1091 24.3614 16.9477 24.3614 16.7867C24.4152 16.5719 24.3074 16.4643 24.1999 16.4105C24.0927 16.3567 23.9312 16.3567 23.7702 16.3567H22.6951V17.2167H23.7701C23.9311 17.2167 24.0926 17.2167 24.1999 17.1629Z" fill="white"/>
<path d="M31.9389 8.34851V8.99345L31.6167 8.34851H29.0909V8.99345L28.7682 8.34851H25.3285C24.7374 8.34851 24.2535 8.4561 23.8237 8.67106V8.34851H21.4053V8.40231V8.67106C21.1366 8.45618 20.8141 8.34851 20.3842 8.34851H11.7312L11.1397 9.69218L10.5486 8.34851H8.61392H7.80767V8.99345L7.53892 8.34851H7.48512H5.17413L4.09906 10.8745L2.86306 13.6154L2.84033 13.6693H2.86306H5.60411H5.63843L5.65791 13.6154L5.98053 12.8094H6.67919L7.00165 13.6693H10.1186V13.6154V13.0244L10.3875 13.6692H11.946L12.2146 13.0244V13.6154V13.6693H13.4507H19.6315H19.6853V12.2718H19.793C19.9004 12.2718 19.9004 12.2718 19.9004 12.4332V13.6155H23.7701V13.293C24.0925 13.4545 24.5759 13.6155 25.2209 13.6155H26.8335L27.156 12.7558H27.9082L28.2307 13.6155H31.3478V13.0782V12.8095L31.8317 13.6155H31.9389H31.9929H34.3576V8.34851H31.9391H31.9389V8.34851ZM13.7196 12.8633H13.182H12.8596V12.5411V9.90721L12.8058 10.0305V10.029L11.5556 12.8633H11.516H11.2285H10.7634L9.47365 9.90721V12.8633H7.64644L7.27025 12.0571H5.44272L5.06646 12.8633H4.1217L5.71163 9.10104H7.05514L8.55997 12.7019V9.10104H8.88236H9.98387L10.0092 9.15491H10.0111L10.6892 10.6308L11.1761 11.7365L11.1934 11.6808L12.2682 9.10112H13.7195V12.8633H13.7196V12.8633ZM17.4281 9.90721H15.332V10.6059H17.3744V11.3582H15.332V12.1109H17.4281V12.9169H14.4184V9.10112H17.4281V9.90721ZM21.2615 11.2931C21.2629 11.2943 21.2647 11.2952 21.2664 11.2963C21.2867 11.3178 21.3041 11.3394 21.3189 11.36C21.4219 11.495 21.5051 11.6957 21.5093 11.99C21.5096 11.9951 21.5099 12.0002 21.5102 12.0053C21.5102 12.0082 21.5107 12.0107 21.5107 12.0138C21.5107 12.0155 21.5106 12.0168 21.5106 12.0184C21.5118 12.048 21.5126 12.0782 21.5126 12.1109V12.8634H20.7065V12.4332C20.7065 12.2183 20.7065 11.8957 20.5451 11.6808C20.4943 11.63 20.4429 11.5965 20.3869 11.5727C20.3064 11.5206 20.1537 11.5197 19.9004 11.5197H18.9327V12.8634H18.0192V9.10112H20.0617C20.5451 9.10112 20.8677 9.10112 21.1365 9.26235C21.3999 9.42049 21.5589 9.68275 21.565 10.098C21.5525 10.67 21.1854 10.9838 20.9214 11.0896C20.9214 11.0896 21.1007 11.1257 21.2615 11.2931ZM23.0713 12.8633H22.1576V9.10104H23.0713V12.8633ZM33.5517 12.8633H32.3691L30.6493 10.0146V12.3794L30.6437 12.3739V12.8656H29.7357V12.8634H28.822L28.4995 12.0572H26.6183L26.2958 12.9169H25.2747C24.845 12.9169 24.3072 12.8096 23.9849 12.4871C23.6624 12.1646 23.5013 11.7347 23.5013 11.0361C23.5013 10.4987 23.6087 9.96085 23.9849 9.53102C24.2534 9.20832 24.7373 9.10112 25.3284 9.10112H26.1885V9.90721H25.3284C25.0059 9.90721 24.845 9.96077 24.6296 10.1223C24.4687 10.2835 24.3611 10.6059 24.3611 10.9821C24.3611 11.4121 24.4149 11.6808 24.6296 11.8957C24.7912 12.0572 25.006 12.111 25.2747 12.111H25.6509L26.8869 9.15507H27.4246H28.2306L29.7357 12.7559V12.5723V11.3584V11.251V9.15515H31.0792L32.6375 11.7885V9.15515H33.5516V12.8634H33.5517V12.8633Z" fill="white"/>
<path d="M20.4952 10.668C20.5109 10.6513 20.5251 10.6322 20.5372 10.6104C20.5858 10.5334 20.6417 10.3946 20.6116 10.2051C20.6103 10.1877 20.6072 10.1716 20.6035 10.1561C20.6025 10.1518 20.6026 10.148 20.6015 10.1437L20.6009 10.1437C20.5742 10.0517 20.5059 9.99511 20.4378 9.96079C20.3301 9.90723 20.1688 9.90723 20.0077 9.90723H18.9326V10.7673H20.0077C20.1688 10.7673 20.3302 10.7673 20.4378 10.7134C20.454 10.7052 20.4684 10.6941 20.4822 10.6815L20.4824 10.6822C20.4824 10.6821 20.4879 10.6764 20.4952 10.668Z" fill="white"/>
<path d="M36.7225 18.2379C36.7225 17.8617 36.6151 17.4854 36.454 17.2167V14.7983H36.4515V14.6368C36.4515 14.6368 34.1988 14.6368 33.8635 14.6368C33.5283 14.6368 33.1216 14.9592 33.1216 14.9592V14.6368H30.6495C30.273 14.6368 29.7897 14.7444 29.5744 14.9592V14.6368H25.1674V14.7983V14.9591C24.8452 14.6906 24.2535 14.6367 23.985 14.6367H21.0827V14.7982V14.959C20.814 14.6905 20.1688 14.6367 19.8462 14.6367H16.6219L15.8693 15.4429L15.1706 14.6367H14.9456H14.5795H10.3337V14.7981V15.2227V20.0652H15.0633L15.8404 19.2879L16.514 20.0652H16.568H19.2932H19.4167H19.4705H19.524V19.5278V18.8291H19.7929C20.1688 18.8291 20.6527 18.8291 21.0289 18.6677V20.0112V20.1189H23.4475V20.0112V18.7215H23.5547C23.7162 18.7215 23.7162 18.7215 23.7162 18.8827V20.0112V20.1189H31.0253C31.5094 20.1189 31.9927 20.0112 32.2614 19.7962V20.0112V20.1189H34.5726C35.056 20.1189 35.5401 20.0652 35.8626 19.8501C36.3574 19.5532 36.6693 19.0277 36.7157 18.4009C36.7178 18.3824 36.7205 18.3638 36.7223 18.3452L36.7191 18.3422C36.7211 18.3074 36.7225 18.273 36.7225 18.2379ZM19.793 17.9155H18.7178V18.0764V18.399V18.7215V19.3128H16.9513L15.9231 18.1302L15.9196 18.1342L15.8693 18.0764L14.687 19.3128H11.2473V15.5507H14.7408L15.6952 16.596L15.8959 16.8149L15.9231 16.7867L17.0519 15.5507H19.9003C20.4531 15.5507 21.0721 15.6872 21.3067 16.2496C21.3349 16.361 21.3513 16.4848 21.3513 16.6255C21.3513 17.7003 20.5988 17.9155 19.793 17.9155ZM25.1674 17.8616C25.2748 18.0225 25.3286 18.2378 25.3286 18.5605V19.3127H24.4151V18.8291C24.4151 18.6138 24.4151 18.2378 24.2536 18.0764C24.1464 17.9155 23.9311 17.9155 23.6089 17.9155H22.6416V19.3128H21.7279V15.4969H23.7701C24.1998 15.4969 24.576 15.4969 24.8452 15.6579C25.1137 15.8193 25.3286 16.0881 25.3286 16.5181C25.3286 17.1091 24.9526 17.4316 24.6837 17.5393C24.9526 17.6463 25.1137 17.7541 25.1674 17.8616ZM28.876 16.3027H26.7796V17.0014H28.822V17.7541H26.7796V18.5066H28.876V19.3127H25.8662V15.4968H28.876V16.3027ZM31.1331 19.3128H29.4132V18.5067H31.1331C31.294 18.5067 31.4018 18.5067 31.5095 18.3991C31.5633 18.3452 31.6167 18.2379 31.6167 18.1303C31.6167 18.0226 31.5633 17.9156 31.5095 17.8617C31.4556 17.808 31.3479 17.7542 31.1867 17.7542C30.3268 17.7004 29.3056 17.7542 29.3056 16.5719C29.3056 16.0344 29.6281 15.4431 30.5956 15.4431H32.3691V16.3567H30.7031C30.5419 16.3567 30.4343 16.3567 30.3267 16.4105C30.2195 16.4643 30.2195 16.5719 30.2195 16.6793C30.2195 16.8406 30.3267 16.8944 30.4342 16.9477C30.5419 17.0016 30.6493 17.0016 30.7567 17.0016H31.2404C31.7242 17.0016 32.0466 17.1091 32.2616 17.3241C32.4229 17.4855 32.5304 17.7542 32.5304 18.1303C32.5304 18.9363 32.0467 19.3128 31.1331 19.3128ZM35.7552 18.9363C35.5404 19.1515 35.164 19.3128 34.6264 19.3128H32.9069V18.5067H34.6263C34.7876 18.5067 34.8953 18.5067 35.0027 18.3991C35.0563 18.3452 35.1102 18.2379 35.1102 18.1303C35.1102 18.0226 35.0563 17.9156 35.0027 17.8617C34.9489 17.808 34.8415 17.7542 34.6802 17.7542C33.8206 17.7004 32.7991 17.7542 32.7991 16.572C32.7991 16.0612 33.0914 15.5997 33.8122 15.4627C33.8983 15.4508 33.9894 15.4431 34.0891 15.4431H35.8628V16.3567H34.6802H34.2504H34.1966C34.0353 16.3567 33.9279 16.3567 33.8206 16.4105C33.7665 16.4643 33.7127 16.5719 33.7127 16.6793C33.7127 16.8406 33.7665 16.8944 33.9279 16.9477C34.0353 17.0016 34.1428 17.0016 34.2504 17.0016H34.3038H34.734C34.9688 17.0016 35.1465 17.0306 35.309 17.0877C35.4579 17.1416 35.9507 17.362 36.0609 17.9375C36.0705 17.9978 36.0775 18.0607 36.0775 18.1303C36.0775 18.4529 35.97 18.7215 35.7552 18.9363Z" fill="white"/>
</svg>
