<svg width="80" height="80" viewBox="0 0 80 80" fill="none" xmlns="http://www.w3.org/2000/svg">
<path d="M61.8412 35.1111H57.5238C57.2698 35.1111 57.0158 35.3651 56.8889 35.6191L55.1111 46.7937C55.1111 47.0476 55.2381 47.1746 55.492 47.1746H57.7777C58.0317 47.1746 58.1587 47.0476 58.1587 46.7937L58.6666 43.6191C58.6666 43.3651 58.9206 43.1111 59.3016 43.1111H60.6984C63.619 43.1111 65.2698 41.7143 65.6508 38.9207C65.9047 37.7778 65.6508 36.7619 65.1428 36.127C64.3809 35.4921 63.2381 35.1111 61.8412 35.1111ZM62.3492 39.3016C62.0952 40.8254 60.9523 40.8254 59.8095 40.8254H59.0476L59.5555 37.9048C59.5555 37.7778 59.6825 37.6508 59.9365 37.6508H60.1904C60.9524 37.6508 61.7143 37.6508 62.0952 38.1588C62.3492 38.2857 62.3492 38.6667 62.3492 39.3016Z" fill="#C4C4C4"/>
<path d="M30.7302 35.1111H26.4127C26.1587 35.1111 25.9048 35.3651 25.7778 35.6191L24 46.7937C24 47.0476 24.127 47.1746 24.381 47.1746H26.4127C26.6667 47.1746 26.9206 46.9207 27.0476 46.6667L27.5556 43.6191C27.5556 43.3651 27.8095 43.1111 28.1905 43.1111H29.5873C32.5079 43.1111 34.1587 41.7143 34.5397 38.9207C34.7937 37.7778 34.5397 36.7619 34.0317 36.127C33.2698 35.4921 32.254 35.1111 30.7302 35.1111ZM31.2381 39.3016C30.9841 40.8254 29.8413 40.8254 28.6984 40.8254H28.0635L28.5714 37.9048C28.5714 37.7778 28.6984 37.6508 28.9524 37.6508H29.2064C29.9683 37.6508 30.7302 37.6508 31.1111 38.1588C31.2381 38.2857 31.3651 38.6667 31.2381 39.3016Z" fill="black" fill-opacity="0.46"/>
<path d="M43.8095 39.1747H41.7777C41.6507 39.1747 41.3968 39.3017 41.3968 39.4287L41.2698 40.0636L41.1428 39.8097C40.6349 39.1747 39.746 38.9208 38.7301 38.9208C36.4444 38.9208 34.4127 40.6986 34.0317 43.1113C33.7777 44.3811 34.1587 45.5239 34.7936 46.2859C35.4285 47.0478 36.3174 47.3017 37.4603 47.3017C39.365 47.3017 40.3809 46.1589 40.3809 46.1589L40.2539 46.7938C40.2539 47.0478 40.3809 47.1747 40.6349 47.1747H42.5396C42.7936 47.1747 43.0476 46.9208 43.1746 46.6668L44.3174 39.5557C44.1904 39.4287 43.9365 39.1747 43.8095 39.1747ZM40.8888 43.2382C40.6349 44.3811 39.746 45.27 38.4761 45.27C37.8412 45.27 37.3333 45.016 37.0793 44.762C36.8254 44.3811 36.6984 43.8732 36.6984 43.2382C36.8253 42.0954 37.8412 41.2065 38.9841 41.2065C39.619 41.2065 40 41.4605 40.3809 41.7144C40.7619 42.0954 40.8888 42.7303 40.8888 43.2382Z" fill="black" fill-opacity="0.46"/>
<path d="M74.7936 39.1747H72.7619C72.6349 39.1747 72.3809 39.3017 72.3809 39.4287L72.2539 40.0636L72.1269 39.8097C71.619 39.1747 70.7301 38.9208 69.7142 38.9208C67.4285 38.9208 65.3968 40.6986 65.0158 43.1113C64.7619 44.3811 65.1428 45.5239 65.7777 46.2859C66.4127 47.0478 67.3015 47.3017 68.4444 47.3017C70.3492 47.3017 71.365 46.1589 71.365 46.1589L71.2381 46.7938C71.2381 47.0478 71.365 47.1747 71.619 47.1747H73.5238C73.7777 47.1747 74.0317 46.9208 74.1587 46.6668L75.3015 39.5557C75.1746 39.4287 75.0476 39.1747 74.7936 39.1747ZM71.873 43.2382C71.619 44.3811 70.7301 45.27 69.4603 45.27C68.8254 45.27 68.3174 45.016 68.0634 44.762C67.8095 44.3811 67.6825 43.8732 67.6825 43.2382C67.8095 42.0954 68.8254 41.2065 69.9682 41.2065C70.6031 41.2065 70.9841 41.4605 71.365 41.7144C71.873 42.0954 72 42.7303 71.873 43.2382Z" fill="#C4C4C4"/>
<path d="M54.8571 39.1744H52.6984C52.4444 39.1744 52.3174 39.3014 52.1905 39.4284L49.3968 43.7459L48.127 39.6824C48 39.4284 47.873 39.3014 47.492 39.3014H45.4603C45.2063 39.3014 45.0793 39.5554 45.0793 39.8094L47.3651 46.5395L45.2063 49.5871C45.0793 49.8411 45.2063 50.2221 45.4603 50.2221H47.492C47.746 50.2221 47.873 50.0951 48 49.9681L54.9841 39.9363C55.3651 39.5554 55.1111 39.1744 54.8571 39.1744Z" fill="black" fill-opacity="0.46"/>
<path d="M77.2062 35.4924L75.4285 46.921C75.4285 47.175 75.5554 47.302 75.8094 47.302H77.5872C77.8412 47.302 78.0951 47.048 78.2221 46.794L79.9999 35.6194C79.9999 35.3655 79.8729 35.2385 79.6189 35.2385H77.5872C77.4602 35.1115 77.3332 35.2385 77.2062 35.4924Z" fill="#C4C4C4"/>
<path d="M14.6032 31.302C13.7143 30.2861 12.0635 29.7782 9.77778 29.7782H3.42857C3.04762 29.7782 2.66667 30.1591 2.53968 30.5401L0 47.175C0 47.556 0.253968 47.8099 0.507937 47.8099H4.44445L5.46032 41.5877V41.8417C5.5873 41.4607 5.96825 41.0798 6.34921 41.0798H8.25397C11.9365 41.0798 14.7302 39.556 15.6191 35.3655C15.6191 35.2385 15.6191 35.1115 15.6191 34.9845C15.4921 34.9845 15.4921 34.9845 15.6191 34.9845C15.746 33.3338 15.4921 32.3179 14.6032 31.302Z" fill="black" fill-opacity="0.46"/>
<path d="M15.492 34.984C15.492 35.111 15.492 35.238 15.492 35.365C14.6032 39.6824 11.8095 41.0792 8.12697 41.0792H6.22221C5.84125 41.0792 5.4603 41.4602 5.33332 41.8412L4.06348 49.5872C4.06348 49.8411 4.19046 50.0951 4.57141 50.0951H7.873C8.25395 50.0951 8.63491 49.8412 8.63491 49.4602V49.3332L9.26983 45.3967V45.1427C9.26983 44.7618 9.65078 44.5078 10.0317 44.5078H10.5397C13.7143 44.5078 16.254 43.238 16.8889 39.4285C17.1428 37.9046 17.0159 36.5078 16.254 35.6189C16.127 35.365 15.873 35.111 15.492 34.984Z" fill="#C4C4C4"/>
<path d="M14.6033 34.6034C14.4763 34.6034 14.3493 34.4764 14.2224 34.4764C14.0954 34.4764 13.9684 34.4764 13.8414 34.3495C13.3335 34.2225 12.8255 34.2225 12.1906 34.2225H7.23823C7.11124 34.2225 6.98426 34.2225 6.85727 34.3495C6.60331 34.4764 6.47632 34.7304 6.47632 34.9844L5.46045 41.5876V41.8415C5.58743 41.4606 5.96839 41.0796 6.34934 41.0796H8.2541C11.9366 41.0796 14.7303 39.5558 15.6192 35.3653C15.6192 35.2383 15.6192 35.1114 15.7462 34.9844C15.4922 34.8574 15.3652 34.7304 15.1112 34.7304C14.7303 34.6034 14.7303 34.6034 14.6033 34.6034Z" fill="black" fill-opacity="0.16"/>
</svg>
